# xmcd CD database file
#
# Track frame offsets:
#	150
#	20873
#	40457
#	57781
#	75384
#	95394
#	116764
#	138047
#	159209
#	176503
#	194395
#	212407
#
# Disc length: 3150 seconds
#
# Revision: 1
# Processed by: cddbd v1.5.2PL0 Copyright (c) Steve Scherf et al.
# Submitted via: CDex 1.51
#
DISCID=950c4c0c
DTITLE=Work of Art - Art Work
DYEAR=2008
DGENRE=Melodious Hard
TTITLE0=Why Do I?
TTITLE1=Maria
TTITLE2=Camelia
TTITLE3=Her Only Lie
TTITLE4=Too Late
TTITLE5=Whenever U Sleep
TTITLE6=Once in a Lifetime
TTITLE7=Piece of Mind
TTITLE8=Lost Without Your Love
TTITLE9=Like No Other
TTITLE10=Cover Me
TTITLE11=One Hour
EXTD=YEAR: 2008
EXTT0=
EXTT1=
EXTT2=
EXTT3=
EXTT4=
EXTT5=
EXTT6=
EXTT7=
EXTT8=
EXTT9=
EXTT10=
EXTT11=
PLAYORDER=
